<svg width="20" height="20" viewBox="0 0 20 20" fill="none" xmlns="http://www.w3.org/2000/svg">
<g clip-path="url(#clip0_928_4527)">
<path d="M10.0003 1.6665C8.35215 1.6665 6.74098 2.15525 5.37057 3.07092C4.00017 3.9866 2.93206 5.28809 2.30133 6.81081C1.6706 8.33352 1.50558 10.0091 1.82712 11.6256C2.14866 13.2421 2.94233 14.727 4.10777 15.8924C5.27321 17.0578 6.75807 17.8515 8.37457 18.173C9.99108 18.4946 11.6666 18.3296 13.1894 17.6988C14.7121 17.0681 16.0136 16 16.9292 14.6296C17.8449 13.2592 18.3337 11.648 18.3337 9.99983C18.3337 7.7897 17.4557 5.67008 15.8929 4.10728C14.3301 2.54448 12.2105 1.6665 10.0003 1.6665Z" stroke="#707070" stroke-width="2" stroke-miterlimit="10"/>
<path d="M7.8125 7.90225C7.8125 7.90225 7.84531 7.21866 8.57695 6.62998C9.01094 6.28037 9.53125 6.1792 10 6.17217C10.427 6.1667 10.8082 6.23741 11.0363 6.346C11.427 6.53194 12.1875 6.98584 12.1875 7.95108C12.1875 8.9667 11.5234 9.42803 10.7668 9.93545C10.0102 10.4429 9.80469 10.9937 9.80469 11.5628" stroke="#707070" stroke-width="2" stroke-miterlimit="10" stroke-linecap="round"/>
<path d="M10.5234 13.5938C10.5234 14.0123 10.1842 14.3516 9.76562 14.3516C9.3471 14.3516 9.00781 14.0123 9.00781 13.5938C9.00781 13.1752 9.3471 12.8359 9.76562 12.8359C10.1842 12.8359 10.5234 13.1752 10.5234 13.5938Z" fill="#707070" stroke="#707070" stroke-width="0.046875"/>
</g>
<defs>
<clipPath id="clip0_928_4527">
<rect width="20" height="20" fill="white"/>
</clipPath>
</defs>
</svg>
